<?xml version="1.0" ?><svg style="enable-background:new 0 0 64 64;" version="1.1" viewBox="0 0 64 64" xml:space="preserve" xmlns="http://www.w3.org/2000/svg" xmlns:xlink="http://www.w3.org/1999/xlink"><style type="text/css">
	.st0{fill:#4267B2;}
	.st1{fill:url(#SVGID_1_);}
	.st2{fill:#FFFFFF;}
	.st3{fill:#C2191E;}
	.st4{fill:#1DA1F3;}
	.st5{fill:#FEFE00;}
	.st6{fill:#25D366;stroke:#FFFFFF;stroke-width:5;stroke-miterlimit:10;}
	.st7{fill:#CB2027;}
	.st8{fill:#0077B5;}
	.st9{fill:url(#SVGID_2_);}
	.st10{fill:url(#SVGID_3_);}
	.st11{fill:#FF004F;}
	.st12{fill:#00F7EF;}
	.st13{fill:#5181B8;}
	.st14{fill:#395976;}
	.st15{fill:#F58220;}
	.st16{fill:#E6162D;}
	.st17{fill:#FF9933;}
</style><g id="guidlines"/><g id="FB"/><g id="ig"/><g id="yt"/><g id="twitter"/><g id="snapchat"/><g id="WA"/><g id="Pinterrest"/><g id="Layer_9"/><g id="Layer_10"/><g id="Layer_11"><path class="st14" d="M49.5,58.1c-3,2.4-6.8,3.9-11,3.9c-3.8,0-7.4-1.2-10.2-3.3c-4.4-3.2-7.2-8.3-7.2-14.1V26h-6l0-6.5   c0-0.6,0.3-1.1,0.9-1.3c0.6-0.3,1.2-0.7,1.8-1c1.2-0.7,2.2-1.6,3.2-2.5c3.1-3,5.2-6.9,5.9-11.3C26.9,2.5,27.5,2,28.2,2L36,2v15h12   v9H36v18.8c0,0.1,0,0.2,0,0.3s0,0.2,0,0.3c0.1,2.6,2.2,4.8,4.8,5c0.2,0,0.4,0,0.7,0c1.8,0,3.6-0.5,5-1.4l3,8.9L49.5,58.1z"/></g><g id="Layer_12"/><g id="Layer_13"/><g id="Layer_14"/><g id="Layer_15"/><g id="Layer_16"/><g id="Layer_17"/></svg>