<svg id="Layer_1" data-name="Layer 1" xmlns="http://www.w3.org/2000/svg" viewBox="0 0 200 26.1"><defs><style>.cls-1{fill:#fff;}</style></defs><title>socialar-logo-white</title><path class="cls-1" d="M4.21,26A11.42,11.42,0,0,1,0,23.72l1.35-2.84A11.34,11.34,0,0,0,5.08,23a13.66,13.66,0,0,0,4.69.82,8.52,8.52,0,0,0,4.74-1.07,3.33,3.33,0,0,0,1.56-2.87,2.82,2.82,0,0,0-.85-2.13,5.79,5.79,0,0,0-2.12-1.25c-.84-.3-2-.62-3.55-1A36.84,36.84,0,0,1,4.9,14.14a7.77,7.77,0,0,1-3-2.14A5.68,5.68,0,0,1,.62,8.12,6.61,6.61,0,0,1,1.69,4.44,7.39,7.39,0,0,1,5,1.82a13.11,13.11,0,0,1,5.43-1,17.08,17.08,0,0,1,4.44.59,11.67,11.67,0,0,1,3.76,1.67L17.39,6A13.24,13.24,0,0,0,14,4.46a12.93,12.93,0,0,0-3.57-.53A7.89,7.89,0,0,0,5.74,5.06,3.47,3.47,0,0,0,4.19,8a2.78,2.78,0,0,0,.88,2.13,5.92,5.92,0,0,0,2.16,1.27,32.9,32.9,0,0,0,3.52,1,34.2,34.2,0,0,1,4.63,1.39,7.74,7.74,0,0,1,3,2.11,5.56,5.56,0,0,1,1.26,3.83,6.53,6.53,0,0,1-1.1,3.66A7.26,7.26,0,0,1,15.24,26a13.66,13.66,0,0,1-5.47,1A17.64,17.64,0,0,1,4.21,26Z" transform="translate(0 -0.83)"/><path class="cls-1" d="M62.42,25.23a12.51,12.51,0,0,1-4.83-4.66,12.9,12.9,0,0,1-1.75-6.69,12.9,12.9,0,0,1,1.75-6.69,12.43,12.43,0,0,1,4.85-4.66A14.16,14.16,0,0,1,69.36.83a14.59,14.59,0,0,1,5.47,1,11.2,11.2,0,0,1,4.23,3L76.69,7.1a9.49,9.49,0,0,0-7.18-3,10.39,10.39,0,0,0-5.14,1.27,9.2,9.2,0,0,0-3.59,3.52,9.84,9.84,0,0,0-1.29,5,9.84,9.84,0,0,0,1.29,5,9.2,9.2,0,0,0,3.59,3.52,10.4,10.4,0,0,0,5.14,1.28,9.5,9.5,0,0,0,7.18-3.07l2.37,2.3a11.36,11.36,0,0,1-4.25,3,14.34,14.34,0,0,1-5.48,1A14.09,14.09,0,0,1,62.42,25.23Z" transform="translate(0 -0.83)"/><path class="cls-1" d="M84.12,1.12h3.64V26.64H84.12Z" transform="translate(0 -0.83)"/><polyline class="cls-1" points="106.16 4.01 115.75 25.81 119.58 25.81 107.99 0.29 104.38 0.29 92.82 25.81 96.58 25.81"/><path class="cls-1" d="M124.64,1.12h3.64V23.47H142.1v3.17H124.64Z" transform="translate(0 -0.83)"/><path class="cls-1" d="M196,26.64l-5.51-7.84c-.68.05-1.21.07-1.6.07h-6.31v7.77H179V1.12h9.95c3.3,0,5.91.79,7.8,2.37A8,8,0,0,1,199.56,10a8.55,8.55,0,0,1-1.45,5,8.29,8.29,0,0,1-4.16,3L200,26.64ZM194.1,14.28A5.21,5.21,0,0,0,195.92,10a5.17,5.17,0,0,0-1.82-4.25,8.27,8.27,0,0,0-5.29-1.47h-6.2V15.78h6.2A8.15,8.15,0,0,0,194.1,14.28Z" transform="translate(0 -0.83)"/><polyline class="cls-1" points="160.5 4.01 170.08 25.81 173.91 25.81 162.32 0.29 158.71 0.29 147.16 25.81 150.91 25.81"/><path class="cls-1" d="M47.65,14.4v2.07h-1v2.1h1v1H46.59c0,.38,0,.72,0,1h1c0,.35,0,.7,0,1.05-.33,0-.66,0-1,0v1h1c0-.35,0-.69,0-1h1v1h2.06v4.13H44.54v-2h2.05v-1h-1v-1H44.54v1h-1v-1a7.25,7.25,0,0,0-1-.05V24.8h1v1H41.4v-1h-1V22.74H37.25v1h-1v-1H34.12v1h1a7.31,7.31,0,0,1,0,1.05h-1v1.05h1v1h-2V21.7h2.06V20.65h1.07v1H41.4c0-.37,0-.71,0-1.05a5.66,5.66,0,0,0,0-1h-1V17.53h-1V15.44h2v-1H37.26V12.34h1v1h4.15V11.28h-1V10.21h1v-1h1a5.66,5.66,0,0,1,0,1c0,.34,0,.69,0,1.05h1v-2h1v2h2.07v1.05h-2v1h1c0,.36,0,.7,0,1.05h-1v1h1c0-.35,0-.69,0-1Zm-2.1,4.19H42.44c0,1.05,0,2.08,0,3.08h3.08Zm2.13,6.23v1h2v-2h-1v1ZM43.5,13.33h1v-1h-1Zm0,1.08v1h1v-1Zm0,3.13c.35,0,.7,0,1,0v-1a6.8,6.8,0,0,0-1,0Z" transform="translate(0 -0.83)"/><path class="cls-1" d="M32,.88V8.13H24.8c-.1-.6-.13-5.25,0-7.25ZM31,7.1V1.9H25.89l-.07,0s0,0,0,0V7.1Z" transform="translate(0 -0.83)"/><path class="cls-1" d="M43.51.87h7.24V8.08c-.59.1-5.16.13-7.24,0Zm1,6.21h5.19V1.92H44.54Z" transform="translate(0 -0.83)"/><path class="cls-1" d="M24.74,26.88V19.64H32c.11.59.14,5,.05,7.24Zm1-1H31V20.77a.14.14,0,0,0,0-.07l0,0H25.78Z" transform="translate(0 -0.83)"/><path class="cls-1" d="M40.36,2.94V5h-1V6h2v-1h1.06V9.19h-1c0-.39,0-.73,0-1.08a5.16,5.16,0,0,0,0-1h-1c0,1,0,2.07,0,3.09H38.27V9.17h1v-2h-1v1h-1v-1h-1v-1h2.05V5h-1V2.94h1V4c.39,0,.72,0,1,0v-1Z" transform="translate(0 -0.83)"/><path class="cls-1" d="M47.65,14.43v-1a5.66,5.66,0,0,1,1,0h1.05v-1h-1V9.23h1v2h1v3.13h-1v1h1V17.5h-1v-1h-1a6,6,0,0,1,0-1V14.43Z" transform="translate(0 -0.83)"/><path class="cls-1" d="M29.94,13.36H32v-1h2.09v1H33v1.07H31a7.25,7.25,0,0,0,.05,1h2.07v1h1v1.05H32v-1a4.78,4.78,0,0,0-1,0H29.94Z" transform="translate(0 -0.83)"/><path class="cls-1" d="M31,10.23v-1h3.13v-1h1v-1h1v1h1v2.08h-1V9.18a6.84,6.84,0,0,0-1,.05v1H34.08v1H32v-1Z" transform="translate(0 -0.83)"/><path class="cls-1" d="M29.91,10.23h-2v1H26.83V12.3H24.76v-1h1v-1h-1v-1l0,0a.11.11,0,0,1,.07,0h5.06Z" transform="translate(0 -0.83)"/><path class="cls-1" d="M34.11,8.15h-1a5.66,5.66,0,0,1,0-1c0-.34,0-.68,0-1h1V5h-1V4h3.06V5h-1V7.11h-1Z" transform="translate(0 -0.83)"/><path class="cls-1" d="M39.32,24.82h1v2l0,.06-.06,0h-4V24.83h1v1a5.1,5.1,0,0,0,1,0c.34,0,.68,0,1.08,0Z" transform="translate(0 -0.83)"/><path class="cls-1" d="M47.65,19.61h3.09a4.78,4.78,0,0,1,0,1c0,.35,0,.69,0,1.08H48.69v-1h-1Z" transform="translate(0 -0.83)"/><path class="cls-1" d="M35.15,20.65H33.08V18.59h1V17.53h1Z" transform="translate(0 -0.83)"/><path class="cls-1" d="M25.75,18.56h-1V13.39a7.71,7.71,0,0,1,1,0Z" transform="translate(0 -0.83)"/><path class="cls-1" d="M27.86,13.36v-1a5.55,5.55,0,0,1,1,0h1.08v1Z" transform="translate(0 -0.83)"/><path class="cls-1" d="M36.17.88V2.93h-1v-2c.15,0,.34,0,.52,0Z" transform="translate(0 -0.83)"/><path class="cls-1" d="M27.88,17.55h2v1h-2Z" transform="translate(0 -0.83)"/><path class="cls-1" d="M27.86,14.4h-1a8.43,8.43,0,0,1-.05-1h1.06Z" transform="translate(0 -0.83)"/><path class="cls-1" d="M27.88,14.42h1v1h-1Z" transform="translate(0 -0.83)"/><path class="cls-1" d="M41.42,3h1V4h-1Z" transform="translate(0 -0.83)"/><path class="cls-1" d="M27.84,17.51h-1v-1h1Z" transform="translate(0 -0.83)"/><path class="cls-1" d="M46.63,9.2h1v1h-1Z" transform="translate(0 -0.83)"/><path class="cls-1" d="M32,17.55v1H31v-1Z" transform="translate(0 -0.83)"/><path class="cls-1" d="M32,12.32H31v-1h1Z" transform="translate(0 -0.83)"/><path class="cls-1" d="M47.67,18.55v-1h1v1Z" transform="translate(0 -0.83)"/><path class="cls-1" d="M41.4,1.9v1h-1v-1Z" transform="translate(0 -0.83)"/><path class="cls-1" d="M38.27,1.9h1v1h-1Z" transform="translate(0 -0.83)"/><path class="cls-1" d="M33.08,2.92v-1h1v1Z" transform="translate(0 -0.83)"/><path class="cls-1" d="M41.42,1.88v-1h1v1Z" transform="translate(0 -0.83)"/><path class="cls-1" d="M38.25,1.88h-1v-1h1Z" transform="translate(0 -0.83)"/><path class="cls-1" d="M39.3,24.8h-1v-1h1Z" transform="translate(0 -0.83)"/><path class="cls-1" d="M31,11.28h-1v-1h1Z" transform="translate(0 -0.83)"/><path class="cls-1" d="M43.48,20.62a3.87,3.87,0,0,0,1,0v-1a6.77,6.77,0,0,0-1,0Z" transform="translate(0 -0.83)"/><path class="cls-1" d="M26.84,21.71v3.11c1.05,0,2.08,0,3.07,0V21.71Z" transform="translate(0 -0.83)"/><path class="cls-1" d="M35.15,17.53V16.48h-1v-1l0,0,.06,0h4v1h-1v1.06h2v2.08h1v1H38.29v-1h-1v-1h-1V17.53Z" transform="translate(0 -0.83)"/><path class="cls-1" d="M35.15,10.23h1v2a8.43,8.43,0,0,1-1,.05Z" transform="translate(0 -0.83)"/><path class="cls-1" d="M41.38,11.3v1h-2v-1Z" transform="translate(0 -0.83)"/><path class="cls-1" d="M34.13,13.38h2v1h-2Z" transform="translate(0 -0.83)"/><path class="cls-1" d="M37.23,10.23h1v1a8.43,8.43,0,0,1-1,0Z" transform="translate(0 -0.83)"/><path class="cls-1" d="M43.48,20.62v-1a6.77,6.77,0,0,1,1,0v1A3.87,3.87,0,0,1,43.48,20.62Z" transform="translate(0 -0.83)"/><path class="cls-1" d="M26.81,3l3.07-.07L30,6c-1,.07-2,0-3.08.09Z" transform="translate(0 -0.83)"/><path class="cls-1" d="M48.68,3V6H45.59c-.05-1,0-2,0-3.07Z" transform="translate(0 -0.83)"/><path class="cls-1" d="M26.84,21.71h3.07V24.8c-1,0-2,0-3.07,0Z" transform="translate(0 -0.83)"/></svg>