<?xml version="1.0" ?><!DOCTYPE svg  PUBLIC '-//W3C//DTD SVG 1.1//EN'  'http://www.w3.org/Graphics/SVG/1.1/DTD/svg11.dtd'><svg enable-background="new 0 0 512 512" id="Layer_1" version="1.1" viewBox="0 0 512 512" xml:space="preserve" xmlns="http://www.w3.org/2000/svg" xmlns:xlink="http://www.w3.org/1999/xlink"><g><path d="M513,138c-1.9,11.5-3.3,23-5.7,34.4c-6.8,31.8-18.6,61.7-33.5,90.5c-14.7,28.6-32.3,55.5-51.8,81   c-22.8,29.8-47.8,57.5-75,83.4c-22.3,21.2-45.5,41.4-71,58.9c-21,14.3-42.9,16.3-65.4,4.1c-14.6-7.9-25.9-19.5-35.5-33   c-10.8-15.4-16.4-33-22-50.6c-15.1-47.7-29.6-95.6-44.7-143.4c-6.7-21.1-14-42-21.2-62.9c-1.7-4.9-3.9-9.5-6.3-14.1   c-3.2-6-8.8-7.2-14.9-6.8c-11.8,0.8-21.4,6.8-31.2,12.5c-4.1,2.5-8,5.3-12.7,8.4c-6.8-8.9-13.5-17.6-20.7-26.9   c4.4-5,8.7-10,13.2-14.9c21.1-23,43.4-44.7,68-63.7c20.4-15.8,41.8-30.1,67.2-37.1c21.9-6,41.8,2,53.4,21.5   c11.8,19.8,17.2,41.7,21.6,63.9c6.3,31.7,11.1,63.6,18.4,95.1c5.7,24.9,14,49.2,21.5,73.7c1.5,4.8,4.3,9.4,6.9,13.8   c6.1,10.1,14,11.6,22.5,3.3c8.5-8.3,17.1-17,23.5-26.9c14.1-21.8,27.5-44,39.8-66.8c7.6-14.2,10.8-30.1,7-46.5   c-5.1-22.1-24.1-33.4-46-26.8c-7.9,2.4-15.5,5.8-24,9.1c1.9-7.1,3.4-14.5,5.9-21.5c13.2-37.2,38.2-64.2,73.2-82.1   c25-12.8,51.3-18.1,79.3-13.6c30.5,4.9,54,29,58.1,59.8c0.6,4.4,1.3,8.9,1.9,13.3C513,130.7,513,134.3,513,138z"/></g></svg>