<?xml version="1.0" ?><!DOCTYPE svg  PUBLIC '-//W3C//DTD SVG 1.1//EN'  'http://www.w3.org/Graphics/SVG/1.1/DTD/svg11.dtd'><svg enable-background="new 0 0 550 550" id="Layer_1" version="1.1" viewBox="0 0 550 550" xml:space="preserve" xmlns="http://www.w3.org/2000/svg" xmlns:xlink="http://www.w3.org/1999/xlink"><g><g><circle cx="275" cy="275" fill="#229CCB" r="256"/><path d="M403.5,215.3c-1.1,25-18.6,59.2-52.4,102.6c-35,45.4-64.6,68-88.8,68c-15,0-27.7-13.8-38-41.5     c-6.9-25.4-13.8-50.8-20.8-76.1c-7.7-27.7-16-41.5-24.8-41.5c-1.9,0-8.6,4-20.2,12.1l-12.1-15.6c12.7-11.1,25.2-22.3,37.5-33.4     c16.9-14.6,29.6-22.3,38-23.1c20-1.9,32.3,11.7,36.9,40.9c5,31.5,8.4,51.1,10.4,58.8c5.8,26.1,12.1,39.2,19,39.2     c5.4,0,13.4-8.4,24.2-25.3c10.8-16.9,16.5-29.8,17.3-38.6c1.5-14.6-4.2-21.9-17.3-21.9c-6.1,0-12.5,1.3-19,4     c12.7-41.1,36.9-61.1,72.7-60C392.6,164.8,405,181.9,403.5,215.3z" fill="#FFFFFF"/></g></g></svg>